<?xml version="1.0" encoding="utf-8"?>
<!-- Generator: Adobe Illustrator 23.1.1, SVG Export Plug-In . SVG Version: 6.00 Build 0)  -->
<svg version="1.1" id="圖層_1" xmlns="http://www.w3.org/2000/svg" xmlns:xlink="http://www.w3.org/1999/xlink" x="0px" y="0px"
	 viewBox="0 0 610.7 381.4" style="enable-background:new 0 0 610.7 381.4;" xml:space="preserve">
<style type="text/css">
	.st0{fill:#231815;}
</style>
<g>
	<path class="st0" d="M248.5,130.2c-65.2,0-118.2,55-118.2,123.1c0,67.9,52.9,123.1,118.2,123.1s118.2-55,118.2-122.9
		C366.6,185.2,313.8,130.2,248.5,130.2z M248.5,314.1c-33,0-59.8-27.8-59.8-62.2s26.7-62.2,59.8-62.2s59.8,27.8,59.8,62.2
		S281.5,314.1,248.5,314.1z"/>
	<path class="st0" d="M99.2,311.6c-3.1,1.6-6.6,2.4-10.3,2.4c-12.3,0-22.7-9.8-23.9-22.3v-2V286v-72.6h20.4
		c4.7-22.3,13.6-43,25.8-61.1H64.9v-31.4v-70L0,121.6v30.9v61.1L0.1,295l0,0c3,48.4,41.4,86.4,88.6,86.4c16.9,0,32.5-4.9,46-13.3
		C119.5,351.9,107.3,332.7,99.2,311.6z"/>
	<path class="st0" d="M510,172.8c-10.5,0-20.7,1.8-30,5.2V50.9h-64.6v225.6l0,0c1.1,55.2,43,99.6,94.6,99.6
		c52.2,0,94.6-45.6,94.6-101.8S562.3,172.8,510,172.8z M510,306.8c-16.6,0-30-14.5-30-32.2c0-17.9,13.4-32.2,30-32.2
		c16.6,0,30,14.5,30,32.2S526.6,306.8,510,306.8z"/>
	<polygon class="st0" points="549.9,8.6 518.1,18.8 577.6,76.3 610.7,66.7 	"/>
</g>
</svg>
